<svg width="598" height="600" viewBox="0 0 598 600" fill="none" xmlns="http://www.w3.org/2000/svg">
<path opacity="0.407353" d="M598 300C598 465.133 464.133 599 299 599C133.867 599 0 465.133 0 300C0 134.867 133.867 1 299 1C464.133 1 598 134.867 598 300Z" fill="black"/>
<path d="M299 599.001C277.488 599.001 256.019 596.698 235.19 592.155C214.912 587.731 195.04 581.145 176.126 572.577C157.554 564.164 139.764 553.779 123.249 541.711C106.868 529.74 91.6441 516.043 78 501H520C506.352 516.047 491.127 529.743 474.75 541.711C458.235 553.779 440.445 564.164 421.873 572.577C402.958 581.145 383.087 587.732 362.809 592.155C341.98 596.698 320.512 599.001 299 599.001Z" fill="#C4FFE1"/>
<path d="M299 0C320.512 0 341.981 2.30347 362.81 6.84668C383.088 11.2698 402.96 17.8567 421.874 26.4246C440.446 34.8374 458.236 45.2222 474.751 57.2905C491.132 69.2612 506.356 82.9583 520 98.0012H78C91.6485 82.9543 106.873 69.2578 123.25 57.2905C139.765 45.2222 157.555 34.8374 176.127 26.4246C195.042 17.8567 214.913 11.2695 235.191 6.84668C256.02 2.30347 277.488 0 299 0Z" fill="#C4FFE1"/>
</svg>
