<svg width="1047" height="139" viewBox="0 0 1047 139" fill="none" xmlns="http://www.w3.org/2000/svg">
<path d="M717.18 95.9999H700.32L685.08 122.82L669.78 95.9999H652.86V138H666.06V113.46L680.52 138H689.52L703.98 113.52V138H717.18V95.9999Z" fill="#333333"/>
<path d="M762.497 138H777.017L757.517 95.9999H738.617L719.057 138H733.637L737.237 129.78H758.897L762.497 138ZM741.437 120.3L748.097 105.24L754.697 120.3H741.437Z" fill="#333333"/>
<path d="M809.795 95.9999H778.895V138H809.795C820.235 138 829.775 131.28 829.775 117C829.775 102.72 820.235 95.9999 809.795 95.9999ZM805.295 126.84H792.095V107.16H805.295C811.055 107.16 816.575 108 816.575 117C816.575 126 811.055 126.84 805.295 126.84Z" fill="#333333"/>
<path d="M873.546 95.9999V124.44L850.206 95.9999H832.626V138H845.826V109.44L869.226 138H886.746V95.9999H873.546Z" fill="#333333"/>
<path d="M934.74 106.26V95.9999H890.34V138H934.74V127.74H903.54V121.5H934.74V112.5H903.54V106.26H934.74Z" fill="#333333"/>
<path d="M936.967 123.36C936.967 135.66 946.927 138.6 964.147 138.6C980.527 138.6 990.607 136.02 990.607 124.62C990.607 113.76 980.347 112.74 963.787 111.96C953.167 111.48 951.127 111.18 951.127 108.72C951.127 106.38 953.167 105.66 962.107 105.66C971.527 105.66 975.607 106.5 975.607 109.92H988.807C988.807 99.3599 979.447 95.3999 963.307 95.3999C947.167 95.3999 937.927 98.8199 937.927 108.06C937.927 117.72 945.187 120.72 963.787 121.44C975.547 121.92 977.407 122.28 977.407 124.98C977.407 127.38 975.007 128.34 964.747 128.34C952.987 128.34 950.167 126.6 950.167 123.36H936.967Z" fill="#333333"/>
<path d="M992.631 123.36C992.631 135.66 1002.59 138.6 1019.81 138.6C1036.19 138.6 1046.27 136.02 1046.27 124.62C1046.27 113.76 1036.01 112.74 1019.45 111.96C1008.83 111.48 1006.79 111.18 1006.79 108.72C1006.79 106.38 1008.83 105.66 1017.77 105.66C1027.19 105.66 1031.27 106.5 1031.27 109.92H1044.47C1044.47 99.3599 1035.11 95.3999 1018.97 95.3999C1002.83 95.3999 993.591 98.8199 993.591 108.06C993.591 117.72 1000.85 120.72 1019.45 121.44C1031.21 121.92 1033.07 122.28 1033.07 124.98C1033.07 127.38 1030.67 128.34 1020.41 128.34C1008.65 128.34 1005.83 126.6 1005.83 123.36H992.631Z" fill="#333333"/>
<path d="M74.5546 0.700009H55.1656L37.6396 31.543L20.0446 0.700009H0.586609V49H15.7666V20.779L32.3956 49H42.7456L59.3746 20.848V49H74.5546V0.700009Z" fill="#333333"/>
<path d="M128.836 49H145.534L123.109 0.700009H101.374L78.8797 49H95.6467L99.7867 39.547H124.696L128.836 49ZM104.617 28.645L112.276 11.326L119.866 28.645H104.617Z" fill="#333333"/>
<path d="M196.918 0.700009V33.406L170.077 0.700009H149.86V49H165.04V16.156L191.95 49H212.098V0.700009H196.918Z" fill="#333333"/>
<path d="M246.567 31.75H262.092C261.609 35.2 257.055 38.374 247.602 38.374C234.285 38.374 232.215 31.129 232.215 25.264C232.215 19.468 234.216 12.844 247.602 12.844C257.952 12.844 261.402 16.708 262.092 19.744H277.548C276.789 7.18601 266.922 0.0100098 247.602 0.0100098C227.73 0.0100098 217.035 8.42801 217.035 24.781C217.035 41.272 227.73 49.69 245.532 49.69C255.744 49.69 262.575 46.585 266.922 41.755L267.819 49H277.548V22.918H246.567V31.75Z" fill="#333333"/>
<path d="M312.632 49.69C333.815 49.69 342.992 41.134 342.992 24.781C342.992 8.49701 333.815 0.0100098 312.632 0.0100098C291.38 0.0100098 282.272 8.42801 282.272 24.781C282.272 41.203 291.38 49.69 312.632 49.69ZM312.632 36.856C300.902 36.856 297.452 32.302 297.452 24.781C297.452 17.329 300.833 12.844 312.632 12.844C324.5 12.844 327.812 17.398 327.812 24.781C327.812 32.233 324.431 36.856 312.632 36.856Z" fill="#333333"/>
</svg>
