<svg width="966" height="120" viewBox="0 0 966 120" fill="none" xmlns="http://www.w3.org/2000/svg">
<path d="M578.554 93.026C578.554 110.638 588.322 119.74 611.114 119.74C631.834 119.74 642.416 112.118 643.452 96.43H626.876C625.914 103.09 620.734 105.976 611.114 105.976C598.756 105.976 594.834 101.092 594.834 93.026C594.834 85.034 598.682 80.224 611.114 80.224C620.734 80.224 625.914 83.036 626.876 89.622H643.452C642.416 74.008 631.834 66.46 611.114 66.46C588.322 66.46 578.554 75.488 578.554 93.026Z" fill="#333333"/>
<path d="M665.27 105.236V67.2H648.99V119H702.27V105.236H665.27Z" fill="#333333"/>
<path d="M738.655 119.74C761.373 119.74 771.215 110.564 771.215 93.026C771.215 75.562 761.373 66.46 738.655 66.46C715.863 66.46 706.095 75.488 706.095 93.026C706.095 110.638 715.863 119.74 738.655 119.74ZM738.655 105.976C726.075 105.976 722.375 101.092 722.375 93.026C722.375 85.034 726.001 80.224 738.655 80.224C751.383 80.224 754.935 85.108 754.935 93.026C754.935 101.018 751.309 105.976 738.655 105.976Z" fill="#333333"/>
<path d="M822.426 67.2L804.74 107.604L787.054 67.2H768.998L793.122 119H816.432L840.482 67.2H822.426Z" fill="#333333"/>
<path d="M899.614 79.854V67.2H844.854V119H899.614V106.346H861.134V98.65H899.614V87.55H861.134V79.854H899.614Z" fill="#333333"/>
<path d="M965.688 86.588C965.688 75.044 957.622 67.2 945.856 67.2H905.156V119H921.436V106.05H937.938L945.634 119H964.874L955.55 103.904C961.84 100.87 965.688 94.58 965.688 86.588ZM921.436 80.964H942.156C945.19 80.964 949.408 80.964 949.408 86.588C949.408 92.286 945.19 92.286 942.156 92.286H921.436V80.964Z" fill="#333333"/>
<path d="M61.76 25.12C64.48 22 66.16 18.24 66.16 14.48C66.16 6.08 62.24 0 49.52 0H0.47998V56H51.68C64.4 56 69.92 48.88 69.92 39.52C69.92 33.28 66.64 28.32 61.76 25.12ZM18.08 12H42.56C45.6 12 48.56 12 48.56 16.4C48.56 20.8 45.6 20.8 42.56 20.8H18.08V12ZM46.32 42.88H18.08V34H46.32C49.36 34 52.32 34 52.32 38.4C52.32 42.88 49.36 42.88 46.32 42.88Z" fill="#333333"/>
<path d="M93.271 41.12V0H75.671V56H133.271V41.12H93.271Z" fill="#333333"/>
<path d="M208.606 27.92V0H191.006V27.92C191.006 34.72 188.846 41.92 173.406 41.92C157.966 41.92 155.806 34.8 155.806 27.92V0H138.206V27.92C138.206 47.44 148.766 56.8 173.406 56.8C197.966 56.8 208.606 47.36 208.606 27.92Z" fill="#333333"/>
<path d="M274.628 13.68V0H215.428V56H274.628V42.32H233.028V34H274.628V22H233.028V13.68H274.628Z" fill="#333333"/>
</svg>
