<svg width="1018" height="123" viewBox="0 0 1018 123" fill="none" xmlns="http://www.w3.org/2000/svg">
<path d="M675.68 102.48C675.68 118.88 688.96 122.8 711.92 122.8C733.76 122.8 747.2 119.36 747.2 104.16C747.2 89.6802 733.52 88.3202 711.44 87.2802C697.28 86.6402 694.56 86.2402 694.56 82.9602C694.56 79.8402 697.28 78.8802 709.2 78.8802C721.76 78.8802 727.2 80.0002 727.2 84.5602H744.8C744.8 70.4802 732.32 65.2002 710.8 65.2002C689.28 65.2002 676.96 69.7602 676.96 82.0802C676.96 94.9602 686.64 98.9602 711.44 99.9202C727.12 100.56 729.6 101.04 729.6 104.64C729.6 107.84 726.4 109.12 712.72 109.12C697.04 109.12 693.28 106.8 693.28 102.48H675.68Z" fill="#333333"/>
<path d="M807.715 66.0002V103.92L776.595 66.0002H753.155V122H770.755V83.9202L801.955 122H825.315V66.0002H807.715Z" fill="#333333"/>
<path d="M865.949 122.8C890.509 122.8 901.149 112.88 901.149 93.9202C901.149 75.0402 890.509 65.2002 865.949 65.2002C841.309 65.2002 830.749 74.9602 830.749 93.9202C830.749 112.96 841.309 122.8 865.949 122.8ZM865.949 107.92C852.349 107.92 848.349 102.64 848.349 93.9202C848.349 85.2802 852.269 80.0802 865.949 80.0802C879.709 80.0802 883.549 85.3602 883.549 93.9202C883.549 102.56 879.629 107.92 865.949 107.92Z" fill="#333333"/>
<path d="M998.708 66.0002L984.628 108.16L969.748 66.0002H948.548L933.668 108.16L919.588 66.0002H900.628L920.868 122H946.308L959.188 84.0802L971.988 122H997.428L1017.59 66.0002H998.708Z" fill="#333333"/>
<path d="M0 29.9865C0 42.8612 10.4253 45.9386 28.4499 45.9386C45.5952 45.9386 56.1461 43.238 56.1461 31.3054C56.1461 19.938 45.4067 18.8704 28.0731 18.0539C16.9569 17.5515 14.8216 17.2375 14.8216 14.6625C14.8216 12.2132 16.9569 11.4596 26.3146 11.4596C36.1747 11.4596 40.4453 12.3388 40.4453 15.9186H54.262C54.262 4.86523 44.4647 0.720215 27.5706 0.720215C10.6766 0.720215 1.00485 4.3 1.00485 13.9717C1.00485 24.083 8.60404 27.2232 28.0731 27.9768C40.3825 28.4793 42.3294 28.8561 42.3294 31.6822C42.3294 34.1943 39.8173 35.1992 29.0779 35.1992C16.7685 35.1992 13.8167 33.3779 13.8167 29.9865H0Z" fill="#333333"/>
<path d="M115.904 23.2666V1.34825H102.087V23.2666C102.087 28.6049 100.392 34.2571 88.2707 34.2571C76.1497 34.2571 74.454 28.6677 74.454 23.2666V1.34825H60.6373V23.2666C60.6373 38.5906 68.9273 45.9386 88.2707 45.9386C107.551 45.9386 115.904 38.5278 115.904 23.2666Z" fill="#333333"/>
<path d="M188.585 1.34825H170.937L154.985 29.4213L138.97 1.34825H121.26V45.3105H135.077V19.624L150.212 45.3105H159.633L174.768 19.6868V45.3105H188.585V1.34825Z" fill="#333333"/>
<path d="M261.412 1.34825H243.765L227.813 29.4213L211.798 1.34825H194.087V45.3105H207.904V19.624L223.04 45.3105H232.46L247.596 19.6868V45.3105H261.412V1.34825Z" fill="#333333"/>
<path d="M313.389 12.0876V1.34825H266.915V45.3105H313.389V34.5712H280.732V28.0396H313.389V18.6191H280.732V12.0876H313.389Z" fill="#333333"/>
<path d="M369.466 17.8027C369.466 8.00539 362.62 1.34825 352.634 1.34825H318.092V45.3105H331.909V34.32H345.914L352.446 45.3105H368.775L360.861 32.4987C366.2 29.9237 369.466 24.5854 369.466 17.8027ZM331.909 13.0297H349.494C352.069 13.0297 355.649 13.0297 355.649 17.8027C355.649 22.6385 352.069 22.6385 349.494 22.6385H331.909V13.0297Z" fill="#333333"/>
</svg>
