<svg width="506" height="236" viewBox="0 0 506 236" fill="none" xmlns="http://www.w3.org/2000/svg">
<g clip-path="url(#clip0_0_47)">
<path fill-rule="evenodd" clip-rule="evenodd" d="M0.913889 0.200073H52.6139C67.5599 0.200073 77.8059 10.1641 77.8059 24.8281C77.8059 39.4921 67.5599 49.5501 52.6139 49.5501H21.5939V66.0001H0.913889V0.200073ZM21.5939 32.0661H47.9139C51.7679 32.0661 57.1259 32.0661 57.1259 24.8281C57.1259 17.6841 51.7679 17.6841 47.9139 17.6841H21.5939V32.0661ZM161.727 24.8281C161.727 10.1641 151.481 0.200073 136.535 0.200073H84.835V66.0001H105.515V49.5501H126.477L136.253 66.0001H160.693L148.849 46.8241C156.839 42.9701 161.727 34.9801 161.727 24.8281ZM131.835 17.6841H105.515V32.0661H131.835C135.689 32.0661 141.047 32.0661 141.047 24.8281C141.047 17.6841 135.689 17.6841 131.835 17.6841ZM189.154 0.200073H168.474V66.0001H189.154V0.200073ZM240.833 51.5241L263.299 0.200073H286.235L255.685 66.0001H226.075L195.431 0.200073H218.367L240.833 51.5241ZM333.12 66.0001H355.868L325.318 0.200073H295.708L265.064 66.0001H287.906L293.546 53.1221H327.48L333.12 66.0001ZM310.56 14.6761L300.126 38.2701H320.9L310.56 14.6761ZM424.937 0.200073H344.097V17.6841H374.177V66.0001H394.857V17.6841H424.937V0.200073ZM501.245 0.200073V16.2741H452.365V26.0501H501.245V40.1501H452.365V49.9261H501.245V66.0001H431.685V0.200073H501.245Z" fill="white"/>
<path fill-rule="evenodd" clip-rule="evenodd" d="M79.5919 158.94C52.6139 158.94 37.0099 154.334 37.0099 135.064H57.6899C57.6899 140.14 62.1079 142.866 80.5319 142.866C96.6059 142.866 100.366 141.362 100.366 137.602C100.366 133.372 97.4519 132.808 79.0279 132.056C49.8879 130.928 38.5139 126.228 38.5139 111.094C38.5139 96.6181 52.9899 91.2601 78.2759 91.2601C103.562 91.2601 118.226 97.4641 118.226 114.008H97.5459C97.5459 108.65 91.1539 107.334 76.3959 107.334C62.3899 107.334 59.1939 108.462 59.1939 112.128C59.1939 115.982 62.3899 116.452 79.0279 117.204C104.972 118.426 121.046 120.024 121.046 137.038C121.046 154.898 105.254 158.94 79.5919 158.94ZM0.913889 92.2001H21.5939V158H0.913889V92.2001ZM157.424 140.516V92.2001H136.744V158H204.424V140.516H157.424ZM309.704 158H286.956L281.316 145.122H247.382L241.742 158H218.9L249.544 92.2001H279.154L309.704 158ZM253.962 130.27L264.396 106.676L274.736 130.27H253.962ZM388.1 136.756V92.2001H408.78V158H381.332L344.672 113.256V158H323.992V92.2001H351.534L388.1 136.756ZM474.11 92.2001H425.7V158H474.11C490.466 158 505.412 147.472 505.412 125.1C505.412 102.728 490.466 92.2001 474.11 92.2001ZM446.38 140.516H467.06C476.084 140.516 484.732 139.2 484.732 125.1C484.732 111 476.084 109.684 467.06 109.684H446.38V140.516Z" fill="white"/>
<path fill-rule="evenodd" clip-rule="evenodd" d="M332.648 180.44V186.492H339.04V180.44H332.648ZM0.535889 183.432H15.2919C19.5532 183.432 21.6839 185.427 21.6839 189.416V200.228C21.6839 202.631 20.7772 204.036 18.9639 204.444C20.7772 204.897 21.6839 206.212 21.6839 208.388V220.016C21.6839 224.005 19.5532 226 15.2919 226H0.535889V183.432ZM15.4959 190.232V199.956C15.4959 200.772 15.3599 201.305 15.0879 201.554C14.8159 201.803 14.2719 201.928 13.4559 201.928H6.65589V188.26H13.4559C14.2719 188.26 14.8159 188.385 15.0879 188.634C15.3599 188.883 15.4959 189.416 15.4959 190.232ZM15.4959 208.728V219.2C15.4959 220.016 15.3599 220.549 15.0879 220.798C14.8159 221.047 14.2719 221.172 13.4559 221.172H6.65589V206.756H13.4559C14.2719 206.756 14.8159 206.881 15.0879 207.13C15.3599 207.379 15.4959 207.912 15.4959 208.728ZM97.5039 192.748H96.1439C94.7839 192.748 93.6392 193.145 92.7099 193.938C91.7805 194.731 91.1345 195.717 90.7719 196.896V192.816H84.6519V226H90.7719V203.084C90.7719 199.729 92.1999 198.052 95.0559 198.052H97.5039V192.748ZM163.872 192.816H170.536C174.797 192.816 176.928 194.833 176.928 198.868V211.312H163.532V219.2C163.532 219.971 163.668 220.492 163.94 220.764C164.212 221.036 164.756 221.172 165.572 221.172H168.7C169.516 221.172 170.06 221.036 170.332 220.764C170.604 220.492 170.74 219.948 170.74 219.132V216.412H176.724V220.016C176.724 224.005 174.616 226 170.4 226H163.872C159.656 226 157.548 224.005 157.548 220.016V198.868C157.548 194.833 159.656 192.816 163.872 192.816ZM170.876 206.824H163.532V199.616C163.532 198.845 163.668 198.324 163.94 198.052C164.212 197.78 164.756 197.644 165.572 197.644H168.904C169.72 197.644 170.253 197.78 170.502 198.052C170.751 198.324 170.876 198.845 170.876 199.616V206.824ZM266.824 192.816H272.604L266.484 226H258.392L254.448 200.908L250.504 226H242.412L236.36 192.816H242.14L246.56 220.764L250.844 192.816H258.12L262.268 220.764L266.824 192.816ZM338.904 226H332.784V192.816H338.904V226ZM414.452 192.816H412.072C409.851 192.816 408.445 193.7 407.856 195.468V192.816H401.736V226H407.856V200.16C407.856 199.299 408.026 198.687 408.366 198.324C408.706 197.961 409.284 197.78 410.1 197.78H412.48C413.296 197.78 413.84 197.905 414.112 198.154C414.384 198.403 414.52 198.936 414.52 199.752V226H420.64V198.868C420.64 194.833 418.577 192.816 414.452 192.816ZM495.78 192.816H501.9V229.4C501.9 233.389 499.769 235.384 495.508 235.384H484.152V230.556H493.74C494.556 230.556 495.1 230.42 495.372 230.148C495.644 229.876 495.78 229.355 495.78 228.584V222.94C495.191 224.708 493.785 225.592 491.564 225.592H489.116C485.036 225.592 482.996 223.575 482.996 219.54V198.868C482.996 194.833 485.036 192.816 489.116 192.816H491.564C493.785 192.816 495.191 193.7 495.78 195.468V192.816ZM493.536 220.628H491.156C490.34 220.628 489.796 220.492 489.524 220.22C489.252 219.948 489.116 219.427 489.116 218.656V199.752C489.116 198.936 489.252 198.403 489.524 198.154C489.796 197.905 490.34 197.78 491.156 197.78H493.536C494.352 197.78 494.93 197.961 495.27 198.324C495.61 198.687 495.78 199.299 495.78 200.16V218.248C495.78 219.109 495.61 219.721 495.27 220.084C494.93 220.447 494.352 220.628 493.536 220.628Z" fill="white"/>
</g>
<defs>
<clipPath id="clip0_0_47">
<rect width="504.876" height="235.184" fill="white" transform="translate(0.536011 0.200012)"/>
</clipPath>
</defs>
</svg>
